# xmcd
#
# Track frame offsets: 
#        150
#        14383
#        33275
#        58575
#        82364
#        102959
#        122140
#        141390
#        169774
#
# Disc length: 2642 seconds
#
# Revision: 0
# Processed by: cddbd v1.5.2PL0 Copyright (c) Steve Scherf et al.
# Submitted via: ExactAudioCopy v1.0b1
#
DISCID=7b0a5009
DTITLE=King King - Reaching For The Light
DYEAR=2015
DGENRE=Blues
TTITLE0=Hurricane
TTITLE1=You Stopped The Rain
TTITLE2=Waking Up
TTITLE3=Rush Hour
TTITLE4=Crazy
TTITLE5=Lay With Me
TTITLE6=Just A Little Lie
TTITLE7=Take A Look
TTITLE8=Stranger To Love
EXTD=
EXTT0=
EXTT1=
EXTT2=
EXTT3=
EXTT4=
EXTT5=
EXTT6=
EXTT7=
EXTT8=
PLAYORDER=
